<svg xmlns="http://www.w3.org/2000/svg" viewBox="0 0 220 240" fill="none" class="r-15ka1bz r-13i4ljo"><path d="M162.316 124.537c-.51-.402-.595-1.03-.229-1.707 2.35-4.019-2.859-.785-4.079-2.519-.335-.545-.227-.802.017-1.379 2.758-4.472-4.13-1.009-5.257-2.381-.533-.409-.579-.812-.595-1.545.124-4.315-4.545.31-5.378-1.48-.206-.542-.093-.99.133-1.642 1.356-5.36-5.898 1.507-5.1-4.981-3.613-1.217-4.686 1.853-4.058-3.5-12.842 1.879 3.969-6.184-9.321-3.345-1.287.38-1.785-.653-2.329-1.662-.962-1.628.506-3.33-.457-4.94-8.618-6.725-9.579-11.29-7.094-21.142.834-2.852 1.518-5.59 1.055-8.63-1.141-7.103-8.208-11.222-10.313-17.026-1.328-4.184-2.008-7.716-1.796-10.875 1.046-3.42 3.781-7.452 7.438-5.075 3.199 3 2.687 8.061 4.654 11.813 2.006 4.44 5.205 5.75 7.494 7.969 7.954 7.982 6.286 13.912 5.036 19.195-2.551 7.576 2.918 4.287 5.091 10.938 2.79 10.5 17.734 7.282 21.298 9.34 10.84 4.903 14.647 12.927 11.787 23.273-.586 3.531-1.011 6.933-2.293 10.314l-.382.607c-1.43.872-3.345.512-5.017.572l-.305-.192zM115.47 18.691c-5.063 6.774-.946 9.81-4.565 9.836-1.53-.338-1.015-3.592-1.585-4.684-3.231-5.899-4.242-14.465-1.096-17.106 4.374-4.303 9.688-1.886 10.476 3.26.261 3.198-1.608 6.002-3.25 8.682a.414.414 0 00.02.012zM102.977 15.716c4.944 4.016 5.526 19.87.739 11.092-13.055-3.809-7.817-13.65-.739-11.092z" fill="#D72300"></path><path d="M130.349 43.746c-3.096 4.437-6.304 2.014-5.203-.939.404-1.4.132-3.032 1.428-4.13 4.378-3.6 6.279 1.67 3.775 5.07zM120.341 32.021c-2.107-1.043-.08-4.154 1.887-3.827 2.443 1.194.683 5.598-1.897 3.842a.132.132 0 00.01-.015z" fill="#D72300"></path><path d="M177.964 135.641l-.458.729c-2.084 2.663-5.055 4.594-7.776 6.789-3.93 4.029-8.226 7.551-11.062 12.539-12.836 23.839-14.784 21.657-24.337 35.212-2.036 3.581-4.171 7.235-6.489 10.731-3.154 6.319-7.541 12.028-10.011 18.824-1.96 4.296-2.044 9.126-4.554 13.26-2.572 2.631-3.651-.39-4.193-2.731-.813-1.002-2.663 2.372-4.02 1.438-3.09-1.061 1.165-5.848-2.938-3.223-.34.206-.685.26-1.164.298-3.619-.782-.773-3.411-1.573-4.221-.883-.897-2.732.759-4.07.913-2.425.293-2.717-1.662-1.464-3.397.08-.334-.035-.505-.408-.355-3.159 2.336-5.086.278-3.945-2.558.08-.25.091-.532-.352-.26-1.023.718-3.203.936-3.143-.882.508-1.347 1.59-2.635-.94-1.604-4.56 1.437-.644-4.187-3.173-3.071-.545.546-1.165 1.01-2.006 1.198-4.459.661.784-5.597-3.504-3.187-.711.328-1.308.74-2.19.718-2.58-.762-1.023-2.15-1.121-3.224-1.145-.406-6.314 2.893-4.824-1.822.05-.315.059-.542-.436-.525-8.818 2.87-2.207-3.318-5.12-2.256-1.076.389-2.421 1.434-3.298.23-.817-1.427 3.172-4.338-2.025-2.042-8.57 2.109 4.458-9.712 5.916-13.018 1.821-2.92 2.457-6.193 3.985-9.364 3.1-6.434 7.122-12.157 10.822-18.334 4.968-8.424 8.874-17.258 14.727-25.236 2.315-4.817 4.402-9.521 6.657-14.461 7.478-17.798 12.648-11.005 21.91-25.96.768-.879 1.769-1.978 3.189-2.013 6.292 1.25-.583 6.235 6.872 3.996.813-.177 1.69-.18 2.302.576 1.09 1.352-1.252 4.085-.17 3.968 9.139-2.016 2.662 3.646 4.776 3.161 7.672-1.759 1.936 3.493 4.672 3.209 9.038-2.181 1.716 4.527 5.126 3.693 6.803-2.508 3.436 2.509 5.446 3.191 3.501-.244 7.358-1.771 4.709 3.497.407.33 1.228-.033 1.851-.036 8.529-1.356-1.798 5.524 5.261 4.196 5.571-.685 2.13 2.818 3.812 3.561 3.225.634 6.407-.258 3.974 4.408 1.426 1.549 6.437-1.623 4.757 3.445z" fill="#fff"></path><path d="M64.446 198.551c-.435-.486-1.21-.708-1.657-1.405 1.25-2.122 3.844.945 5.318 1.671 2.385 1.1 4.558 2.167 6.637 3.989 3.681 2.131 7.126 4.328 10.807 6.526 3.68 2.519 7.402 4.153 11.316 6.335 2.675 1.636 4.932 3.524 7.753 5.086 7.723 4.856 6.555 3.239 6.432 5.59-4.889-1.483-9.393-5.638-14.051-8.348-11.072-6.357-21.41-13.214-32.555-19.444zM125.083 104.261c2.651 2.344 5.704 4.507 8.684 6.518 12.799 7.881 24.004 17.854 36.855 25.782 1.713 4.436-13.554-7.343-14.42-7.891-15.849-12.025-23.666-15.977-32.709-23.581.067-.55.351-1.681 1.59-.828zM65.153 195.407c.122-1.053.87-1.828 1.209-2.945.213-.282.371-.528.57-1.014 4.025-7.193 7.537-14.85 12.246-21.828.194-.079.121-.361.332-.427 1.078-1.838 2.387-3.685 3.55-5.787 1.912-2.143 3.252-4.892 4.83-7.498.126-.094.155-.189.383-.687.036-.024.097-.059.183-.111.006-.106-.025-.252.124-.321.022-.103.047-.203.076-.334.353-.444.544-1.051 1.013-1.691.373-1.036 1.53-2.027 1.608-3.202 3.926-5.907 6.536-12.663 9.782-19.027 2.652-4.447 4.329-6.296 8.371-10.306a523.059 523.059 0 017.95-7.88c.801-.904 4.05-5.001 5.305-5.644 15.098 10.297 29.834 21.354 45.377 31.285.298.395-3.011 1.825-5.104 3.942-2.279 2.48-4.232 5.228-6.148 7.99-.869 1.253-1.905 2.457-2.593 3.803a91.568 91.568 0 01-2.451 4.488c-1.655 2.834-3.548 5.475-5.315 8.224a287.052 287.052 0 01-5.027 7.558c-2.794 4.062-5.707 8.038-8.643 11.996-2.381 3.209-4.783 6.406-7.024 9.718-2.104 3.111-4.049 6.334-5.716 9.703a90.993 90.993 0 00-1.483 3.189c-1.417 3.181-2.596 6.543-4.681 9.55-.773 1.381-2.429 5.985-3.812 4.424-13.575-8.341-26.884-16.504-40.708-24.49-1.407-.662-2.772-1.746-4.204-2.678zm45.085 25.205c1.685-1.996 2.508-4.484 3.851-6.833 1.051-2.289 2.158-4.504 3.35-6.978-.041-.249.219-.382.228-.609.837-1.573 1.658-3.417 2.71-5.091 1.32-2.448 2.759-5.005 4.537-7.373 8.996-11.614 17.1-23.853 25.459-36.217 4.986-7.634 6.908-13.923 14.863-19.41-9.588-5.782-18.684-12.404-27.684-19.188-5.107-3.147-9.845-6.609-14.769-10.153-1.644 1.072-2.859 2.701-4.17 4.282-5.53 6.791-12.149 11.309-15.444 17.627-7.94 14.481-.534 3.948-13.731 26.353-2.132 3.744-4.382 7.671-6.929 11.295-5.557 8.502-10.656 17.408-15.18 26.693 11.141 6.533 22.471 12.883 33.473 19.875 3.018 1.961 6.254 3.762 9.436 5.727z" fill="#502314"></path><path d="M104.943 192.681c.249-1.805.941.804 2.517-1.014.332-1.559 14.663-11.968 8.889-13.227-1.276-.929 3.58-2.586.095-5.96 1.287 1.275 1.719-1.533 3.089-1.917 10.018.582 5.318 1.47-.937 14.021-2.092 2.643-7.757 18.349-12.491 13.196-1.623-1.55-2.462-3.531-1.161-5.101l-.001.002zm1.048.017c-.035-.046 0 0-.142-.1.034.046-.003-.001.142.1zM100.198 174.245c.332.438-5.632 11.461-2.68 12.783-2.286 4.24-7.923 2.421-7.277.636 3.016-8.843 8.846-17.325 13.044-25.567.278.034 1.064-3.966 4.366-.8 3.153 10.086-2.363 2.748-3.717 9.313-2.793-.176-1.297-2.287-3.736 3.635z" fill="#D72300"></path><path d="M92.77 195.274c-6.908-6.897-.694-4.501 2.768-4.307-.033 1.831.883 3.709 2.563 4.582 1.286.643 2.892.456 4.9-.79.328 1.847 1.652 4.091 3.839 5.106 1.906.408 1.162.47-.503 1.194-2.703 2.139-9.679-4.343-13.567-5.785zM128.351 161.292c-2.719 14.128-.798 7.465-8.773 7.612-1.651 1.167 6.444-16.771 7.916-19.942 7.843-2.245 3.053 1.485.857 12.33zM109.171 154.716c2.748-2.94 5.21-5.93 8.638-9.677 1.091-.545 2.499-5.563 5.082.295.895 2.606-3.099 4.149-12.234 17.669-.792 1.047-1.642-4.088-4.235-4.247-1.087-.33-.943-.021 2.749-4.04zM120.494 162.587c-.068-.459-2.527 8.194-2.743 4.682-4.672-7.03-10.009 1.543-4.101-6.675 8.476-12.954 18.332-21.526 6.844 1.993zM132.516 142.152c-1.019-.736-7.694-4.17-7.951-5.355 2.494-7.373 6.048-1.758 11.64 1.345 2.306 1.277-2.17 6.348-3.689 4.01zm4.543-3.078c.029-.035.061-.018-.029-.1-.027.037-.032.012.029.1zM129.249 131.557c-2.21-.385-.251-3.697 1.111-3.642 8.682 4.139 12.98 5.793 8.099 9.044-3.167-1.282-5.826-3.713-9.21-5.402z" fill="#D72300"></path><path d="M104.213 191.16c-2.97 5.891-10.556 2.766-5.754-3.621 1.484.866 3.681 2.399 5.754 3.621zM109.762 168.17c-.999-3.288 10.045-4.322 5.515 3.792-.17-1.536-3.587-2.488-5.515-3.792zM102.704 187.47c-2.86-.387-1.68-5.766 2.246-4.346 2.261 1.309 1.111 5.769-2.246 4.346zM104.949 192.682c-.006-.001-.006-.001 0 0-.022.035-.029-.206 0 0z" fill="#D72300"></path><path d="M101.448 169.474c-.009.082.44.04.144-.111.137.079.578-.078.481.105 2.716 1.538.318-1.684 4.89-2.588 3.751.936 15.207 5.471 9.461 11.092.707.328 2.15 1.08 2.439 1.968-.5.952-.096.158-4.031 4.649-1.021 1.467-2.707 2.616-3.899 4.216-.79.537-1.288 1.392-2.801 2.575-1.564 1.36.602 3.688-11.997-5.055-.07-1.377.873-2.387 1.632-6.203.11-.054.118.014.466-1.404.74-1.913 2.139-5.906 3.215-9.244zm12.442 9.11c-.009-.394-.81-.619.525-1.709 3.427-1.737-.187-4.782-3.581-6.729-3.9-1.866-4.286-1.657-6.711 2.223-1.983-.876-1.388-1.25-2.092 1.25-.122.128-.154.273-.307.763.073.092-.204.302-.701 2.237-.18.49-.556 1.238-.694 1.952-.79 1.634-1.482 4.883-2.154 6.821-.097.39.445.65 4.179 3.033 4.057 2.286 3.052 3.39 6.996-1.497-.132.294.705-.672 2.202-2.402-.069.081.063.125.03.182-.124-.487 3.63-3.204 4.364-5.191-.432-.071-.927-.59-2.056-.933zM123.491 137.875c1.219-1.724-.166-1.963 10.947 4.953.422-.201-1.956 6.024-2.492 6.403-1.49-.245-7.047 1.737-8.944-2.063-.434.133.908-.784-2.518-3.612-1.637-.846 1.19-2.964 1.437-3.57.032-.326.798-.73.936-1.247-.028.022-.041.031-.052.042.103-.235.92-1.03.686-.906z" fill="#198737"></path><path d="M104.497 182.43c.841-.843 3.178 2.034.341 1.697-.437-.159-1.235-.392-.349-1.695-.114.13.395-.09.008-.002z" fill="#198737"></path><defs><clipPath id="spill"><path fill="#fff" d="M0 0H131.961V200H0z" transform="rotate(32.158 53.684 186.247)"></path></clipPath></defs></svg>